<?xml version="1.0" encoding="UTF-8" standalone="no"?>
<!DOCTYPE svg PUBLIC "-//W3C//DTD SVG 1.1//EN"
 "http://www.w3.org/Graphics/SVG/1.1/DTD/svg11.dtd">
<!-- Generated by graphviz version 2.40.1 (20161225.0304)
 -->
<!-- Title: dependencies Pages: 1 -->
<svg width="1364pt" height="284pt"
 viewBox="0.00 0.00 1364.00 284.00" xmlns="http://www.w3.org/2000/svg" xmlns:xlink="http://www.w3.org/1999/xlink">
<g id="graph0" class="graph" transform="scale(1 1) rotate(0) translate(4 280)">
<title>dependencies</title>
<polygon fill="#ffffff" stroke="transparent" points="-4,4 -4,-280 1360,-280 1360,4 -4,4"/>
<text text-anchor="start" x="657.0091" y="-42.4" font-family="sans-serif" font-weight="bold" font-size="14.00" fill="#000000">Legend</text>
<polygon fill="#ffffb3" stroke="transparent" points="444,-10 444,-30 464,-30 464,-10 444,-10"/>
<text text-anchor="start" x="467.629" y="-15.4" font-family="sans-serif" font-size="14.00" fill="#000000"> &#160;Declarations</text>
<polygon fill="#8dd3c7" stroke="transparent" points="557,-10 557,-30 577,-30 577,-10 557,-10"/>
<text text-anchor="start" x="580.7251" y="-15.4" font-family="sans-serif" font-size="14.00" fill="#000000"> &#160;Module</text>
<polygon fill="#80b1d3" stroke="transparent" points="643,-10 643,-30 663,-30 663,-10 643,-10"/>
<text text-anchor="start" x="666.7812" y="-15.4" font-family="sans-serif" font-size="14.00" fill="#000000"> &#160;Bootstrap</text>
<polygon fill="#fdb462" stroke="transparent" points="740,-10 740,-30 760,-30 760,-10 740,-10"/>
<text text-anchor="start" x="763.6732" y="-15.4" font-family="sans-serif" font-size="14.00" fill="#000000"> &#160;Providers</text>
<polygon fill="#fb8072" stroke="transparent" points="836,-10 836,-30 856,-30 856,-10 836,-10"/>
<text text-anchor="start" x="859.7258" y="-15.4" font-family="sans-serif" font-size="14.00" fill="#000000"> &#160;Exports</text>
<g id="clust1" class="cluster">
<title>cluster_CoreModule</title>
<polygon fill="none" stroke="#000000" stroke-dasharray="1,5" points="8,-70 8,-268 1348,-268 1348,-70 8,-70"/>
</g>
<g id="clust2" class="cluster">
<title>cluster_CoreModule_declarations</title>
<polygon fill="none" stroke="#000000" points="280,-78 280,-130 1340,-130 1340,-78 280,-78"/>
</g>
<g id="clust10" class="cluster">
<title>cluster_CoreModule_imports</title>
<polygon fill="none" stroke="#000000" points="158,-78 158,-130 272,-130 272,-78 158,-78"/>
</g>
<g id="clust11" class="cluster">
<title>cluster_CoreModule_exports</title>
<polygon fill="none" stroke="#000000" points="632,-208 632,-260 750,-260 750,-208 632,-208"/>
</g>
<g id="clust13" class="cluster">
<title>cluster_CoreModule_providers</title>
<polygon fill="none" stroke="#000000" points="16,-78 16,-130 150,-130 150,-78 16,-78"/>
</g>
<!-- AuthComponent -->
<g id="node1" class="node">
<title>AuthComponent</title>
<polygon fill="#ffffb3" stroke="#000000" points="1331.8301,-122 1222.1699,-122 1222.1699,-86 1331.8301,-86 1331.8301,-122"/>
<text text-anchor="middle" x="1277" y="-99.8" font-family="Times,serif" font-size="14.00" fill="#000000">AuthComponent</text>
</g>
<!-- CoreModule -->
<g id="node8" class="node">
<title>CoreModule</title>
<polygon fill="#8dd3c7" stroke="#000000" points="734.2619,-187 731.2619,-191 710.2619,-191 707.2619,-187 647.7381,-187 647.7381,-151 734.2619,-151 734.2619,-187"/>
<text text-anchor="middle" x="691" y="-164.8" font-family="Times,serif" font-size="14.00" fill="#000000">CoreModule</text>
</g>
<!-- AuthComponent&#45;&gt;CoreModule -->
<g id="edge1" class="edge">
<title>AuthComponent&#45;&gt;CoreModule</title>
<path fill="none" stroke="#000000" d="M1277,-122.0109C1277,-144.4852 1277,-180 1277,-180 1277,-180 744.5665,-180 744.5665,-180"/>
<polygon fill="#000000" stroke="#000000" points="744.5665,-176.5001 734.5665,-180 744.5665,-183.5001 744.5665,-176.5001"/>
</g>
<!-- ChartComponent -->
<g id="node2" class="node">
<title>ChartComponent</title>
<polygon fill="#ffffb3" stroke="#000000" points="1204.4356,-122 1091.5644,-122 1091.5644,-86 1204.4356,-86 1204.4356,-122"/>
<text text-anchor="middle" x="1148" y="-99.8" font-family="Times,serif" font-size="14.00" fill="#000000">ChartComponent</text>
</g>
<!-- ChartComponent&#45;&gt;CoreModule -->
<g id="edge2" class="edge">
<title>ChartComponent&#45;&gt;CoreModule</title>
<path fill="none" stroke="#000000" d="M1148,-122.1289C1148,-142.5724 1148,-173 1148,-173 1148,-173 744.4055,-173 744.4055,-173"/>
<polygon fill="#000000" stroke="#000000" points="744.4055,-169.5001 734.4055,-173 744.4054,-176.5001 744.4055,-169.5001"/>
</g>
<!-- DashboardComponent -->
<g id="node3" class="node">
<title>DashboardComponent</title>
<polygon fill="#ffffb3" stroke="#000000" points="1073.9734,-122 932.0266,-122 932.0266,-86 1073.9734,-86 1073.9734,-122"/>
<text text-anchor="middle" x="1003" y="-99.8" font-family="Times,serif" font-size="14.00" fill="#000000">DashboardComponent</text>
</g>
<!-- DashboardComponent&#45;&gt;CoreModule -->
<g id="edge3" class="edge">
<title>DashboardComponent&#45;&gt;CoreModule</title>
<path fill="none" stroke="#000000" d="M1003,-122.2667C1003,-140.5552 1003,-166 1003,-166 1003,-166 744.3823,-166 744.3823,-166"/>
<polygon fill="#000000" stroke="#000000" points="744.3823,-162.5001 734.3823,-166 744.3822,-169.5001 744.3823,-162.5001"/>
</g>
<!-- SearchComponent -->
<g id="node4" class="node">
<title>SearchComponent</title>
<polygon fill="#ffffb3" stroke="#000000" points="913.9201,-122 794.0799,-122 794.0799,-86 913.9201,-86 913.9201,-122"/>
<text text-anchor="middle" x="854" y="-99.8" font-family="Times,serif" font-size="14.00" fill="#000000">SearchComponent</text>
</g>
<!-- SearchComponent&#45;&gt;CoreModule -->
<g id="edge4" class="edge">
<title>SearchComponent&#45;&gt;CoreModule</title>
<path fill="none" stroke="#000000" d="M854,-122.0091C854,-138.0494 854,-159 854,-159 854,-159 744.681,-159 744.681,-159"/>
<polygon fill="#000000" stroke="#000000" points="744.681,-155.5001 734.681,-159 744.681,-162.5001 744.681,-155.5001"/>
</g>
<!-- TopArtisTracksComponent -->
<g id="node5" class="node">
<title>TopArtisTracksComponent</title>
<polygon fill="#ffffb3" stroke="#000000" points="775.965,-122 606.035,-122 606.035,-86 775.965,-86 775.965,-122"/>
<text text-anchor="middle" x="691" y="-99.8" font-family="Times,serif" font-size="14.00" fill="#000000">TopArtisTracksComponent</text>
</g>
<!-- TopArtisTracksComponent&#45;&gt;CoreModule -->
<g id="edge5" class="edge">
<title>TopArtisTracksComponent&#45;&gt;CoreModule</title>
<path fill="none" stroke="#000000" d="M691,-122.1061C691,-122.1061 691,-140.991 691,-140.991"/>
<polygon fill="#000000" stroke="#000000" points="687.5001,-140.9909 691,-150.991 694.5001,-140.991 687.5001,-140.9909"/>
</g>
<!-- TopArtistComponent -->
<g id="node6" class="node">
<title>TopArtistComponent</title>
<polygon fill="#ffffb3" stroke="#000000" points="587.7688,-122 452.2312,-122 452.2312,-86 587.7688,-86 587.7688,-122"/>
<text text-anchor="middle" x="520" y="-99.8" font-family="Times,serif" font-size="14.00" fill="#000000">TopArtistComponent</text>
</g>
<!-- TopArtistComponent&#45;&gt;CoreModule -->
<g id="edge6" class="edge">
<title>TopArtistComponent&#45;&gt;CoreModule</title>
<path fill="none" stroke="#000000" d="M520,-122.0091C520,-138.0494 520,-159 520,-159 520,-159 637.407,-159 637.407,-159"/>
<polygon fill="#000000" stroke="#000000" points="637.4071,-162.5001 647.407,-159 637.407,-155.5001 637.4071,-162.5001"/>
</g>
<!-- UserProfileComponent -->
<g id="node7" class="node">
<title>UserProfileComponent</title>
<polygon fill="#ffffb3" stroke="#000000" points="433.8585,-122 288.1415,-122 288.1415,-86 433.8585,-86 433.8585,-122"/>
<text text-anchor="middle" x="361" y="-99.8" font-family="Times,serif" font-size="14.00" fill="#000000">UserProfileComponent</text>
</g>
<!-- UserProfileComponent&#45;&gt;CoreModule -->
<g id="edge7" class="edge">
<title>UserProfileComponent&#45;&gt;CoreModule</title>
<path fill="none" stroke="#000000" d="M361,-122.2667C361,-140.5552 361,-166 361,-166 361,-166 637.5189,-166 637.5189,-166"/>
<polygon fill="#000000" stroke="#000000" points="637.519,-169.5001 647.5189,-166 637.5189,-162.5001 637.519,-169.5001"/>
</g>
<!-- SharedModule  -->
<g id="node10" class="node">
<title>SharedModule </title>
<polygon fill="#fb8072" stroke="#000000" points="741.9222,-252 640.0778,-252 640.0778,-216 741.9222,-216 741.9222,-252"/>
<text text-anchor="middle" x="691" y="-229.8" font-family="Times,serif" font-size="14.00" fill="#000000">SharedModule </text>
</g>
<!-- CoreModule&#45;&gt;SharedModule  -->
<g id="edge9" class="edge">
<title>CoreModule&#45;&gt;SharedModule </title>
<path fill="none" stroke="#000000" stroke-dasharray="5,2" d="M691,-187.1061C691,-187.1061 691,-205.991 691,-205.991"/>
<polygon fill="#000000" stroke="#000000" points="687.5001,-205.9909 691,-215.991 694.5001,-205.991 687.5001,-205.9909"/>
</g>
<!-- SharedModule -->
<g id="node9" class="node">
<title>SharedModule</title>
<polygon fill="#8dd3c7" stroke="#000000" points="264.4231,-122 261.4231,-126 240.4231,-126 237.4231,-122 165.5769,-122 165.5769,-86 264.4231,-86 264.4231,-122"/>
<text text-anchor="middle" x="215" y="-99.8" font-family="Times,serif" font-size="14.00" fill="#000000">SharedModule</text>
</g>
<!-- SharedModule&#45;&gt;CoreModule -->
<g id="edge8" class="edge">
<title>SharedModule&#45;&gt;CoreModule</title>
<path fill="none" stroke="#000000" d="M215,-122.1289C215,-142.5724 215,-173 215,-173 215,-173 637.4963,-173 637.4963,-173"/>
<polygon fill="#000000" stroke="#000000" points="637.4963,-176.5001 647.4963,-173 637.4963,-169.5001 637.4963,-176.5001"/>
</g>
<!-- AuthService -->
<g id="node11" class="node">
<title>AuthService</title>
<ellipse fill="#fdb462" stroke="#000000" cx="83" cy="-104" rx="59.1083" ry="18"/>
<text text-anchor="middle" x="83" y="-99.8" font-family="Times,serif" font-size="14.00" fill="#000000">AuthService</text>
</g>
<!-- AuthService&#45;&gt;CoreModule -->
<g id="edge10" class="edge">
<title>AuthService&#45;&gt;CoreModule</title>
<path fill="none" stroke="#000000" d="M83,-122.0109C83,-144.4852 83,-180 83,-180 83,-180 637.2741,-180 637.2741,-180"/>
<polygon fill="#000000" stroke="#000000" points="637.2742,-183.5001 647.2741,-180 637.2741,-176.5001 637.2742,-183.5001"/>
</g>
</g>
</svg>
