<?xml version="1.0" encoding="UTF-8" standalone="no"?>
<!DOCTYPE svg PUBLIC "-//W3C//DTD SVG 1.1//EN"
 "http://www.w3.org/Graphics/SVG/1.1/DTD/svg11.dtd">
<!-- Generated by graphviz version 2.40.1 (20161225.0304)
 -->
<!-- Title: dependencies Pages: 1 -->
<svg width="875pt" height="284pt"
 viewBox="0.00 0.00 875.00 284.00" xmlns="http://www.w3.org/2000/svg" xmlns:xlink="http://www.w3.org/1999/xlink">
<g id="graph0" class="graph" transform="scale(1 1) rotate(0) translate(4 280)">
<title>dependencies</title>
<polygon fill="#ffffff" stroke="transparent" points="-4,4 -4,-280 871,-280 871,4 -4,4"/>
<text text-anchor="start" x="412.5091" y="-42.4" font-family="sans-serif" font-weight="bold" font-size="14.00" fill="#000000">Legend</text>
<polygon fill="#ffffb3" stroke="transparent" points="199.5,-10 199.5,-30 219.5,-30 219.5,-10 199.5,-10"/>
<text text-anchor="start" x="223.129" y="-15.4" font-family="sans-serif" font-size="14.00" fill="#000000"> &#160;Declarations</text>
<polygon fill="#8dd3c7" stroke="transparent" points="312.5,-10 312.5,-30 332.5,-30 332.5,-10 312.5,-10"/>
<text text-anchor="start" x="336.2251" y="-15.4" font-family="sans-serif" font-size="14.00" fill="#000000"> &#160;Module</text>
<polygon fill="#80b1d3" stroke="transparent" points="398.5,-10 398.5,-30 418.5,-30 418.5,-10 398.5,-10"/>
<text text-anchor="start" x="422.2812" y="-15.4" font-family="sans-serif" font-size="14.00" fill="#000000"> &#160;Bootstrap</text>
<polygon fill="#fdb462" stroke="transparent" points="495.5,-10 495.5,-30 515.5,-30 515.5,-10 495.5,-10"/>
<text text-anchor="start" x="519.1732" y="-15.4" font-family="sans-serif" font-size="14.00" fill="#000000"> &#160;Providers</text>
<polygon fill="#fb8072" stroke="transparent" points="591.5,-10 591.5,-30 611.5,-30 611.5,-10 591.5,-10"/>
<text text-anchor="start" x="615.2258" y="-15.4" font-family="sans-serif" font-size="14.00" fill="#000000"> &#160;Exports</text>
<g id="clust1" class="cluster">
<title>cluster_SharedModule</title>
<polygon fill="none" stroke="#000000" stroke-dasharray="1,5" points="8,-70 8,-268 859,-268 859,-70 8,-70"/>
</g>
<g id="clust2" class="cluster">
<title>cluster_SharedModule_declarations</title>
<polygon fill="none" stroke="#000000" points="286,-78 286,-130 851,-130 851,-78 286,-78"/>
</g>
<g id="clust7" class="cluster">
<title>cluster_SharedModule_imports</title>
<polygon fill="none" stroke="#000000" points="156,-78 156,-130 278,-130 278,-78 156,-78"/>
</g>
<g id="clust8" class="cluster">
<title>cluster_SharedModule_exports</title>
<polygon fill="none" stroke="#000000" points="167,-208 167,-260 718,-260 718,-208 167,-208"/>
</g>
<g id="clust10" class="cluster">
<title>cluster_SharedModule_providers</title>
<polygon fill="none" stroke="#000000" points="16,-78 16,-130 148,-130 148,-78 16,-78"/>
</g>
<!-- ChatBodyComponent -->
<g id="node1" class="node">
<title>ChatBodyComponent</title>
<polygon fill="#ffffb3" stroke="#000000" points="843.1108,-122 704.8892,-122 704.8892,-86 843.1108,-86 843.1108,-122"/>
<text text-anchor="middle" x="774" y="-99.8" font-family="Times,serif" font-size="14.00" fill="#000000">ChatBodyComponent</text>
</g>
<!-- SharedModule -->
<g id="node5" class="node">
<title>SharedModule</title>
<polygon fill="#8dd3c7" stroke="#000000" points="479.4231,-187 476.4231,-191 455.4231,-191 452.4231,-187 380.5769,-187 380.5769,-151 479.4231,-151 479.4231,-187"/>
<text text-anchor="middle" x="430" y="-164.8" font-family="Times,serif" font-size="14.00" fill="#000000">SharedModule</text>
</g>
<!-- ChatBodyComponent&#45;&gt;SharedModule -->
<g id="edge1" class="edge">
<title>ChatBodyComponent&#45;&gt;SharedModule</title>
<path fill="none" stroke="#000000" d="M776.4304,-122.1061C776.4304,-141.3391 776.4304,-169 776.4304,-169 776.4304,-169 489.2671,-169 489.2671,-169"/>
<polygon fill="#000000" stroke="#000000" points="489.2672,-165.5001 479.2671,-169 489.2671,-172.5001 489.2672,-165.5001"/>
</g>
<!-- ChatComponent -->
<g id="node2" class="node">
<title>ChatComponent</title>
<polygon fill="#ffffb3" stroke="#000000" points="686.7744,-122 579.2256,-122 579.2256,-86 686.7744,-86 686.7744,-122"/>
<text text-anchor="middle" x="633" y="-99.8" font-family="Times,serif" font-size="14.00" fill="#000000">ChatComponent</text>
</g>
<!-- ChatComponent&#45;&gt;SharedModule -->
<g id="edge2" class="edge">
<title>ChatComponent&#45;&gt;SharedModule</title>
<path fill="none" stroke="#000000" d="M633,-122.027C633,-138.3976 633,-160 633,-160 633,-160 489.3998,-160 489.3998,-160"/>
<polygon fill="#000000" stroke="#000000" points="489.3998,-156.5001 479.3998,-160 489.3998,-163.5001 489.3998,-156.5001"/>
</g>
<!-- MenuComponent -->
<g id="node3" class="node">
<title>MenuComponent</title>
<polygon fill="#ffffb3" stroke="#000000" points="560.9916,-122 447.0084,-122 447.0084,-86 560.9916,-86 560.9916,-122"/>
<text text-anchor="middle" x="504" y="-99.8" font-family="Times,serif" font-size="14.00" fill="#000000">MenuComponent</text>
</g>
<!-- MenuComponent&#45;&gt;SharedModule -->
<g id="edge3" class="edge">
<title>MenuComponent&#45;&gt;SharedModule</title>
<path fill="none" stroke="#000000" d="M463.1077,-122.1061C463.1077,-122.1061 463.1077,-140.991 463.1077,-140.991"/>
<polygon fill="#000000" stroke="#000000" points="459.6077,-140.9909 463.1077,-150.991 466.6077,-140.991 459.6077,-140.9909"/>
</g>
<!-- MiniChatComponent -->
<g id="node4" class="node">
<title>MiniChatComponent</title>
<polygon fill="#ffffb3" stroke="#000000" points="429.5,-122 294.5,-122 294.5,-86 429.5,-86 429.5,-122"/>
<text text-anchor="middle" x="362" y="-99.8" font-family="Times,serif" font-size="14.00" fill="#000000">MiniChatComponent</text>
</g>
<!-- MiniChatComponent&#45;&gt;SharedModule -->
<g id="edge4" class="edge">
<title>MiniChatComponent&#45;&gt;SharedModule</title>
<path fill="none" stroke="#000000" d="M405.1445,-122.1061C405.1445,-122.1061 405.1445,-140.991 405.1445,-140.991"/>
<polygon fill="#000000" stroke="#000000" points="401.6445,-140.9909 405.1445,-150.991 408.6445,-140.991 401.6445,-140.9909"/>
</g>
<!-- ChatBodyComponent  -->
<g id="node7" class="node">
<title>ChatBodyComponent </title>
<polygon fill="#fb8072" stroke="#000000" points="709.6113,-252 568.3887,-252 568.3887,-216 709.6113,-216 709.6113,-252"/>
<text text-anchor="middle" x="639" y="-229.8" font-family="Times,serif" font-size="14.00" fill="#000000">ChatBodyComponent </text>
</g>
<!-- SharedModule&#45;&gt;ChatBodyComponent  -->
<g id="edge6" class="edge">
<title>SharedModule&#45;&gt;ChatBodyComponent </title>
<path fill="none" stroke="#000000" stroke-dasharray="5,2" d="M479.4375,-178C520.9914,-178 573.6537,-178 573.6537,-178 573.6537,-178 573.6537,-205.973 573.6537,-205.973"/>
<polygon fill="#000000" stroke="#000000" points="570.1538,-205.973 573.6537,-215.973 577.1538,-205.973 570.1538,-205.973"/>
</g>
<!-- ChatComponent  -->
<g id="node8" class="node">
<title>ChatComponent </title>
<polygon fill="#fb8072" stroke="#000000" points="550.7745,-252 439.2255,-252 439.2255,-216 550.7745,-216 550.7745,-252"/>
<text text-anchor="middle" x="495" y="-229.8" font-family="Times,serif" font-size="14.00" fill="#000000">ChatComponent </text>
</g>
<!-- SharedModule&#45;&gt;ChatComponent  -->
<g id="edge7" class="edge">
<title>SharedModule&#45;&gt;ChatComponent </title>
<path fill="none" stroke="#000000" stroke-dasharray="5,2" d="M459.287,-187.1061C459.287,-187.1061 459.287,-205.991 459.287,-205.991"/>
<polygon fill="#000000" stroke="#000000" points="455.7871,-205.9909 459.287,-215.991 462.7871,-205.991 455.7871,-205.9909"/>
</g>
<!-- MaterialModule  -->
<g id="node9" class="node">
<title>MaterialModule </title>
<polygon fill="#fb8072" stroke="#000000" points="421.4716,-252 310.5284,-252 310.5284,-216 421.4716,-216 421.4716,-252"/>
<text text-anchor="middle" x="366" y="-229.8" font-family="Times,serif" font-size="14.00" fill="#000000">MaterialModule </text>
</g>
<!-- SharedModule&#45;&gt;MaterialModule  -->
<g id="edge8" class="edge">
<title>SharedModule&#45;&gt;MaterialModule </title>
<path fill="none" stroke="#000000" stroke-dasharray="5,2" d="M401.0121,-187.1061C401.0121,-187.1061 401.0121,-205.991 401.0121,-205.991"/>
<polygon fill="#000000" stroke="#000000" points="397.5122,-205.9909 401.0121,-215.991 404.5122,-205.991 397.5122,-205.9909"/>
</g>
<!-- MenuComponent  -->
<g id="node10" class="node">
<title>MenuComponent </title>
<polygon fill="#fb8072" stroke="#000000" points="292.9926,-252 175.0074,-252 175.0074,-216 292.9926,-216 292.9926,-252"/>
<text text-anchor="middle" x="234" y="-229.8" font-family="Times,serif" font-size="14.00" fill="#000000">MenuComponent </text>
</g>
<!-- SharedModule&#45;&gt;MenuComponent  -->
<g id="edge9" class="edge">
<title>SharedModule&#45;&gt;MenuComponent </title>
<path fill="none" stroke="#000000" stroke-dasharray="5,2" d="M380.5901,-178C337.425,-178 281.6156,-178 281.6156,-178 281.6156,-178 281.6156,-205.973 281.6156,-205.973"/>
<polygon fill="#000000" stroke="#000000" points="278.1156,-205.973 281.6156,-215.973 285.1156,-205.973 278.1156,-205.973"/>
</g>
<!-- MaterialModule -->
<g id="node6" class="node">
<title>MaterialModule</title>
<polygon fill="#8dd3c7" stroke="#000000" points="270.4706,-122 267.4706,-126 246.4706,-126 243.4706,-122 163.5294,-122 163.5294,-86 270.4706,-86 270.4706,-122"/>
<text text-anchor="middle" x="217" y="-99.8" font-family="Times,serif" font-size="14.00" fill="#000000">MaterialModule</text>
</g>
<!-- MaterialModule&#45;&gt;SharedModule -->
<g id="edge5" class="edge">
<title>MaterialModule&#45;&gt;SharedModule</title>
<path fill="none" stroke="#000000" d="M222.8698,-122.027C222.8698,-138.3976 222.8698,-160 222.8698,-160 222.8698,-160 370.6503,-160 370.6503,-160"/>
<polygon fill="#000000" stroke="#000000" points="370.6503,-163.5001 380.6503,-160 370.6503,-156.5001 370.6503,-163.5001"/>
</g>
<!-- ChatService -->
<g id="node11" class="node">
<title>ChatService</title>
<ellipse fill="#fdb462" stroke="#000000" cx="82" cy="-104" rx="58.4628" ry="18"/>
<text text-anchor="middle" x="82" y="-99.8" font-family="Times,serif" font-size="14.00" fill="#000000">ChatService</text>
</g>
<!-- ChatService&#45;&gt;SharedModule -->
<g id="edge10" class="edge">
<title>ChatService&#45;&gt;SharedModule</title>
<path fill="none" stroke="#000000" d="M82,-122.1061C82,-141.3391 82,-169 82,-169 82,-169 370.5097,-169 370.5097,-169"/>
<polygon fill="#000000" stroke="#000000" points="370.5097,-172.5001 380.5097,-169 370.5096,-165.5001 370.5097,-172.5001"/>
</g>
</g>
</svg>
